HIERARCHY
ROOT Hips
{
	OFFSET 0.000000 0.000000 0.000000 
	CHANNELS 6 Xposition Yposition Zposition Yrotation Zrotation Xrotation 
	JOINT Lumbar
	{
		OFFSET 0.000000 0.000000 0.000000 
		CHANNELS 3 Zrotation Xrotation Yrotation
		JOINT Neck
		{
			OFFSET 0.000000 0.445665 0.000000 
			CHANNELS 3 Zrotation Xrotation Yrotation
			End Site
			{
				OFFSET 0.000000 0.227535 0.000000 
			}
		}
		JOINT RightShoulder
		{
			OFFSET 0.019635 0.377685 0.194865 
			CHANNELS 3 Zrotation Xrotation Yrotation
			JOINT RightElbow
			{
				OFFSET 0.000000 -0.243375 0.000000 
				CHANNELS 2 Zrotation Yrotation
				JOINT RightWrist
				{
					OFFSET 0.000000 -0.264825 0.000000 
					CHANNELS 2 Zrotation Xrotation
					End Site
					{
						OFFSET 0.006600 -0.176220 0.000990 
					}
				}
			}
		}
		JOINT LeftShoulder
		{
			OFFSET 0.019635 0.377685 -0.194865 
			CHANNELS 3 Zrotation Xrotation Yrotation
			JOINT LeftElbow
			{
				OFFSET 0.000000 -0.243375 0.000000 
				CHANNELS 2 Zrotation Yrotation
				JOINT LeftWrist
				{
					OFFSET 0.000000 -0.264825 0.000000 
					CHANNELS 2 Zrotation Xrotation
					End Site
					{
						OFFSET 0.006600 -0.176220 -0.000990 
					}
				}
			}
		}
	}
	JOINT RightHip
	{
		OFFSET 0.052140 -0.069960 0.075570 
		CHANNELS 3 Zrotation Xrotation Yrotation
		JOINT RightKnee
		{
			OFFSET 0.000000 -0.402270 0.000000 
			CHANNELS 1 Zrotation
			JOINT RightAnkle
			{
				OFFSET 0.000000 -0.404085 0.000000 
				CHANNELS 3 Zrotation Xrotation Yrotation
				End Site
				{
					OFFSET 0.204105 -0.089430 0.008415 
				}
			}
		}
	}
	JOINT LeftHip
	{
		OFFSET 0.052140 -0.069960 -0.075570 
		CHANNELS 3 Zrotation Xrotation Yrotation
		JOINT LeftKnee
		{
			OFFSET 0.000000 -0.402270 0.000000 
			CHANNELS 1 Zrotation
			JOINT LeftAnkle
			{
				OFFSET 0.000000 -0.404085 0.000000 
				CHANNELS 3 Zrotation Xrotation Yrotation
				End Site
				{
					OFFSET 0.204105 -0.089430 -0.008415 
				}
			}
		}
	}
}
MOTION
Frames: 20
Frame Time: 0.02
0.0311 0.95372 0.03065 195.15035 0 -2.74991 -4.87949 -0.28253 1.0038 -20.50327 8.17819 7.66155 71.28381 -47.55523 60.72278 25.16348 76.01232 -5.09652 0.11065 32.2395 13.731 -39.25521 84.41388 -87.63537 -24.68238 4.59265 -4.86811 2.91008 -14.99221 -4.6208 -2.8099 -3.96807 -10.01987 4.08435 3.86676 -5.78226 -10.76457 3.43437 1.02525 -3.07383
0.03149 0.95395 0.03225 195.20466 0 -2.75796 -4.93998 -0.40443 1.37932 -20.95325 8.65222 8.32896 73.7512 -47.12756 60.11422 26.98487 77.68726 -6.78484 -0.99065 32.68863 12.70915 -39.34326 83.50583 -88.04073 -24.68308 4.66088 -4.76407 2.8051 -14.79097 -4.83406 -2.85748 -3.98581 -10.20713 4.03395 3.80074 -5.52324 -10.63962 3.36005 0.96292 -3.27119
0.03185 0.95423 0.03389 194.95862 0 -2.78188 -4.97908 -0.50559 1.68605 -21.47537 9.18415 9.02726 75.93892 -46.37398 58.90248 30.13651 81.16256 -7.83364 -2.37359 33.02605 11.65939 -39.14225 82.62146 -88.49335 -24.72364 4.74061 -4.5933 2.68343 -14.44251 -5.08527 -2.92562 -3.98897 -10.28558 3.92693 3.75551 -5.12362 -10.52414 3.32116 0.9573 -3.33525
0.03222 0.95448 0.0355 194.84436 0 -2.79814 -5.03043 -0.61577 2.01083 -21.95655 9.68427 9.69411 78.1946 -45.76583 58.02834 32.75314 83.70757 -9.13241 -3.61178 33.39592 10.64878 -39.05336 81.75129 -88.91884 -24.75107 4.81293 -4.45525 2.56983 -14.16445 -5.31346 -2.98378 -3.99839 -10.40751 3.84692 3.70038 -4.79222 -10.40926 3.26918 0.92692 -3.45376
0.03262 0.95476 0.03714 194.74262 0 -2.81638 -5.06993 -0.72686 2.39306 -22.47869 10.21029 10.43722 80.72872 -45.16604 56.90713 35.11116 86.66284 -10.65311 -4.9385 33.84954 9.52147 -39.04339 80.76576 -89.36865 -24.76028 4.89413 -4.30443 2.45352 -13.86119 -5.56893 -3.04512 -4.00968 -10.55736 3.75862 3.64749 -4.43093 -10.27091 3.20431 0.89209 -3.60104
0.03294 0.95499 0.03873 194.54741 0 -2.83422 -5.12982 -0.83151 2.63853 -22.92808 10.69407 11.02681 82.5984 -44.47997 56.14625 38.3071 89.20665 -11.53453 -6.13554 34.09828 8.63387 -38.80202 80.03125 -89.77727 -24.81559 4.95958 -4.16588 2.33929 -13.58054 -5.775 -3.10441 -4.01344 -10.62221 3.67561 3.59457 -4.10474 -10.18519 3.17487 0.88046 -3.65511
0.03306 0.9551 0.04015 194.15434 0 -2.84727 -5.24703 -0.92258 2.52438 -23.1841 11.05917 11.19636 82.78842 -43.54514 56.56472 43.52559 90.29032 -10.87747 -6.97239 33.82679 8.39838 -37.9838 79.96886 -90.08001 -24.99127 4.98017 -4.07128 2.23327 -13.38581 -5.8414 -3.15444 -4.00051 -10.47845 3.61685 3.53856 -3.88841 -10.23712 3.23322 0.91417 -3.491
0.03309 0.95517 0.0415 193.68128 0 -2.85931 -5.38639 -1.00812 2.27445 -23.35915 11.37707 11.20788 82.30108 -42.55153 57.35711 49.52589 90.8925 -9.57932 -7.65556 33.34928 8.40864 -36.94496 80.16241 -90.33625 -25.21095 4.98434 -3.99283 2.1303 -13.22294 -5.8554 -3.20136 -3.98039 -10.25261 3.56659 3.48136 -3.71777 -10.34303 3.32619 0.97006 -3.23635
0.03316 0.95525 0.04289 193.25389 0 -2.87166 -5.5185 -1.09695 2.08581 -23.5541 11.7087 11.28416 82.06304 -41.64229 57.95192 55.1473 91.64141 -8.52291 -8.36275 32.95301 8.31786 -36.01244 80.24991 -90.60118 -25.40845 4.99515 -3.91134 2.02708 -13.05455 -5.88899 -3.24875 -3.96316 -10.0643 3.51545 3.4234 -3.54154 -10.42802 3.40428 1.01902 -3.0182
0.03325 0.95535 0.04427 192.77498 0 -2.88519 -5.63796 -1.18193 1.89691 -23.8228 12.07588 11.39179 82.05942 -40.47536 58.64341 60.93457 92.73115 -7.65629 -9.27063 32.60367 8.18131 -35.04238 80.29447 -90.92013 -25.61719 5.00975 -3.80918 1.91849 -12.8415 -5.94144 -3.30095 -3.94696 -9.87129 3.44938 3.37188 -3.29565 -10.49798 3.48029 1.05697 -2.8141
0.03326 0.95539 0.04564 192.39034 0 -2.89582 -5.78929 -1.27369 1.67674 -23.91795 12.35592 11.39561 81.41439 -39.83921 59.22929 66.5204 93.00477 -6.24794 -9.72382 32.11106 8.19857 -34.10421 80.4893 -91.11507 -25.81173 5.0125 -3.75495 1.822 -12.7329 -5.94207 -3.34197 -3.92716 -9.66996 3.41757 3.30613 -3.20821 -10.61207 3.56804 1.12198 -2.56214
0.03306 0.95524 0.04695 192.26964 0 -2.89868 -6.0235 -1.38739 1.4077 -23.55112 12.41626 11.15619 79.13182 -40.64967 59.44124 71.55202 90.86636 -3.52655 -8.92608 31.25712 8.58259 -33.28998 81.03365 -90.97733 -25.96197 4.98571 -3.82805 1.75858 -12.88928 -5.80889 -3.35415 -3.89861 -9.46677 3.47504 3.2034 -3.54223 -10.83357 3.68226 1.25917 -2.19101
0.03278 0.95502 0.04826 192.25088 0 -2.89859 -6.28897 -1.50789 1.11157 -23.01281 12.38865 10.81687 76.23701 -42.0022 59.53518 76.30674 87.96477 -0.28425 -7.68049 30.27 9.11229 -32.52043 81.72042 -90.71648 -26.09512 4.94763 -3.94929 1.7072 -13.15301 -5.62597 -3.35489 -3.86685 -9.25858 3.56746 3.08593 -4.0352 -11.09761 3.80638 1.42185 -1.77751
0.03255 0.95484 0.04958 192.19768 0 -2.89978 -6.54017 -1.62413 0.82519 -22.55395 12.39467 10.51981 73.64169 -43.13265 59.68021 81.06011 85.58638 2.73857 -6.66044 29.35458 9.57452 -31.74358 82.34426 -90.51282 -26.23216 4.91527 -4.04968 1.65022 -13.37909 -5.46778 -3.35987 -3.83697 -9.05235 3.6465 2.97372 -4.46009 -11.34325 3.92419 1.57087 -1.38971
0.03228 0.95465 0.05084 192.09208 0 -2.9012 -6.79283 -1.74504 0.54424 -22.08476 12.42519 10.22987 70.92241 -44.16657 59.84895 86.39625 82.45266 5.72754 -5.54336 28.38341 10.05222 -30.90338 82.97117 -90.30226 -26.38718 4.88001 -4.14666 1.5941 -13.56068 -5.29827 -3.36865 -3.80504 -8.8438 3.7158 2.86743 -4.87133 -11.58775 4.05111 1.73007 -0.97022
0.03206 0.95445 0.05223 192.11991 0 -2.90143 -7.04907 -1.85801 0.24809 -21.59881 12.38522 9.90425 68.33788 -45.52083 59.93509 90.4203 80.71076 8.88196 -4.52267 27.50106 10.52714 -30.20938 83.62004 -90.07751 -26.50007 4.84815 -4.26143 1.53873 -13.85814 -5.14192 -3.36703 -3.77675 -8.64084 3.81287 2.74549 -5.34518 -11.84287 4.16066 1.87306 -0.6094
0.03199 0.95424 0.05395 192.50023 0 -2.89922 -7.31169 -1.94631 -0.08843 -21.09685 12.16523 9.49883 66.16925 -47.71498 59.82406 91.07108 83.04754 12.53235 -3.88889 26.8847 10.97412 -29.90471 84.31081 -89.84352 -26.5008 4.83 -4.41794 1.48483 -14.46497 -5.02835 -3.33779 -3.75912 -8.44768 3.98406 2.58259 -5.97848 -12.12625 4.22209 1.97168 -0.40829
0.03197 0.95403 0.0558 193.00962 0 -2.89592 -7.57582 -2.02655 -0.43705 -20.5866 11.87884 9.0633 64.18224 -50.19589 59.63152 90.37292 86.80063 16.29435 -3.36598 26.3662 11.40899 -29.74831 85.01377 -89.60002 -26.45957 4.8155 -4.58961 1.43076 -15.18121 -4.93126 -3.29881 -3.74535 -8.26197 4.18071 2.40475 -6.66414 -12.41672 4.26514 2.05187 -0.2703
0.03193 0.95382 0.0576 193.45505 0 -2.89299 -7.8366 -2.11126 -0.7769 -20.08808 11.62767 8.64544 62.18294 -52.48925 59.47345 90.16872 89.88051 19.89591 -2.78606 25.81092 11.83829 -29.52626 85.70021 -89.36089 -26.43722 4.79829 -4.75159 1.37527 -15.83745 -4.83044 -3.26545 -3.73 -8.07782 4.3619 2.23458 -7.30916 -12.69763 4.31485 2.13593 -0.11247
0.03187 0.9536 0.05934 193.92823 0 -2.89036 -8.11029 -2.19304 -1.13413 -19.54956 11.35223 8.20509 59.85848 -55.04653 59.32341 90.4578 93.07414 23.98963 -2.21942 25.21583 12.32031 -29.29461 86.44106 -89.11617 -26.41477 4.78487 -4.92781 1.32673 -16.54255 -4.71123 -3.22669 -3.71382 -7.87274 4.56124 2.05999 -8.03167 -13.00716 4.37189 2.23952 0.08335
